<svg width="700" height="700" viewBox="0 0 700 700" fill="none" xmlns="http://www.w3.org/2000/svg">
<path d="M665.959 294.288L669.612 322.038L670.833 350L669.612 377.962L665.959 405.712L659.901 433.038L651.485 459.731L640.774 485.59L627.85 510.417L612.811 534.022L595.773 556.228L576.863 576.863L556.228 595.773L534.022 612.811L510.417 627.85L485.59 640.774L459.731 651.485L433.038 659.901L405.712 665.959L377.962 669.612L350 670.833L322.038 669.612L294.288 665.959L266.962 659.901L240.269 651.485L214.41 640.774L189.583 627.85L165.978 612.811L143.772 595.773L123.137 576.863L104.227 556.228L87.1887 534.022L72.1502 510.417L59.2263 485.59L48.5153 459.731L40.0988 433.038L34.0409 405.712L30.3876 377.962L29.1667 350L30.3876 322.038L34.0409 294.288L40.0988 266.962L48.5153 240.269L59.2263 214.41L72.1502 189.583L87.1887 165.978L104.227 143.772L123.137 123.137L143.772 104.227L165.978 87.1887L189.583 72.1502L214.41 59.2263L240.269 48.5153L266.962 40.0988L294.288 34.0408" stroke="#03CEA4" stroke-width="50" stroke-linecap="round"/>
<path d="M405.712 34.0408L433.038 40.0988L459.731 48.5153L485.59 59.2263L510.417 72.1502L534.022 87.1887L556.228 104.227L576.863 123.137L595.773 143.772L612.811 165.978L627.85 189.583" stroke="#F61067" stroke-width="50" stroke-linecap="round"/>
</svg>
