<svg width="1920" height="1080" viewBox="0 0 1920 1080" fill="none" xmlns="http://www.w3.org/2000/svg">
<path d="M517.612 544.236C564.25 522.885 558.964 458.011 509.639 446.4C477.636 438.865 447.046 462.695 446.915 495.259C446.765 532.416 485.231 559.061 517.612 544.236Z" fill="#576490"/>
<path d="M387.101 577.784C410.466 557.788 405.279 521.137 377.376 509.091C349.747 497.156 321.01 516.302 321.01 546.64C321.01 581.184 361.073 600.065 387.101 577.784Z" fill="#576490"/>
<path d="M663.043 576.8C686.427 556.219 680.015 518.935 651.333 508.716C634.16 502.596 617.536 506 606.483 517.895C571.31 555.756 624.281 610.921 663.043 576.8Z" fill="#576490"/>
<path d="M527.587 563.92C508.658 574.325 488.986 574.357 468.488 564.015C455.739 557.583 455.66 557.579 443.97 562.604C414.668 575.203 394.384 598.061 386.92 626.908L384.619 635.787L497.976 635.787L611.334 635.787L611.334 631.225C611.334 609.727 589.389 581.358 561.893 567.304C542.459 557.373 539.949 557.124 527.587 563.92Z" fill="#576490"/>
<path d="M741.825 630.11C732.23 621.492 711.578 608.454 699.097 603.133C692.871 600.48 684.19 597.072 679.813 595.562L671.847 592.815L668.491 596.385C663.644 601.548 648.072 608.086 638.204 609.106C631.219 609.826 629.879 610.423 630.677 612.463C631.211 613.823 633.121 619.63 634.919 625.362L638.193 635.787L693.096 635.724L748 635.657L741.825 630.11Z" fill="#576490"/>
<path d="M362.16 609.533C352.514 609.533 341.259 605.734 332.534 599.531C323.275 592.949 323.504 592.949 306.92 599.263C289.771 605.79 272.922 615.475 259.042 626.786L248 635.787L303.75 635.787L359.499 635.787L361.172 629.581C362.089 626.169 364.176 620.259 365.809 616.456L368.774 609.533L362.16 609.533Z" fill="#576490"/>
<path d="M813.959 484.288L817.612 512.038L818.833 540L817.612 567.962L813.959 595.712L807.901 623.038L799.485 649.731L788.774 675.59L775.85 700.417L760.811 724.022L743.773 746.228L724.863 766.863L704.228 785.773L682.022 802.811L658.417 817.85L633.59 830.774L607.731 841.485L581.038 849.901L553.712 855.959L525.962 859.612L498 860.833L470.038 859.612L442.288 855.959L414.962 849.901L388.269 841.485L362.41 830.774L337.583 817.85L313.978 802.811L291.772 785.773L271.137 766.863L252.227 746.228L235.189 724.022L220.15 700.417L207.226 675.59L196.515 649.731L188.099 623.038L182.041 595.712L178.388 567.962L177.167 540L178.388 512.038L182.041 484.288L188.099 456.962L196.515 430.269L207.226 404.41L220.15 379.583L235.189 355.978L252.227 333.772L271.137 313.137L291.772 294.227L313.978 277.189L337.583 262.15L362.41 249.226L388.269 238.515L414.962 230.099L442.288 224.041" stroke="#03CEA4" stroke-width="50" stroke-linecap="round"/>
<path d="M553.712 224.041L581.038 230.099L607.731 238.515L633.59 249.226L658.417 262.15L682.022 277.189L704.228 294.227L724.863 313.137L743.773 333.772L760.811 355.978L775.85 379.583" stroke="#F61067" stroke-width="50" stroke-linecap="round"/>
<path d="M1007.87 560.15C996.403 560.15 985.725 558.287 975.835 554.56C966.088 550.69 957.56 545.315 950.25 538.435C943.083 531.412 937.493 523.17 933.48 513.71C929.467 504.25 927.46 493.93 927.46 482.75C927.46 471.57 929.467 461.25 933.48 451.79C937.493 442.33 943.155 434.16 950.465 427.28C957.775 420.257 966.303 414.882 976.05 411.155C985.797 407.285 996.475 405.35 1008.09 405.35C1020.41 405.35 1031.66 407.5 1041.84 411.8C1052.02 415.957 1060.62 422.192 1067.64 430.505L1049.58 447.49C1044.13 441.613 1038.04 437.242 1031.31 434.375C1024.57 431.365 1017.26 429.86 1009.38 429.86C1001.49 429.86 994.253 431.15 987.66 433.73C981.21 436.31 975.548 439.965 970.675 444.695C965.945 449.425 962.218 455.015 959.495 461.465C956.915 467.915 955.625 475.01 955.625 482.75C955.625 490.49 956.915 497.585 959.495 504.035C962.218 510.485 965.945 516.075 970.675 520.805C975.548 525.535 981.21 529.19 987.66 531.77C994.253 534.35 1001.49 535.64 1009.38 535.64C1017.26 535.64 1024.57 534.207 1031.31 531.34C1038.04 528.33 1044.13 523.815 1049.58 517.795L1067.64 534.995C1060.62 543.165 1052.02 549.4 1041.84 553.7C1031.66 558 1020.34 560.15 1007.87 560.15ZM1132.58 559.505C1120.83 559.505 1110.37 556.997 1101.19 551.98C1092.02 546.82 1084.78 539.797 1079.48 530.91C1074.17 522.023 1071.52 511.918 1071.52 500.595C1071.52 489.128 1074.17 479.023 1079.48 470.28C1084.78 461.393 1092.02 454.442 1101.19 449.425C1110.37 444.408 1120.83 441.9 1132.58 441.9C1144.48 441.9 1155.01 444.408 1164.19 449.425C1173.5 454.442 1180.74 461.322 1185.9 470.065C1191.21 478.808 1193.86 488.985 1193.86 500.595C1193.86 511.918 1191.21 522.023 1185.9 530.91C1180.74 539.797 1173.5 546.82 1164.19 551.98C1155.01 556.997 1144.48 559.505 1132.58 559.505ZM1132.58 536.5C1139.18 536.5 1145.05 535.067 1150.21 532.2C1155.37 529.333 1159.39 525.177 1162.25 519.73C1165.26 514.283 1166.77 507.905 1166.77 500.595C1166.77 493.142 1165.26 486.763 1162.25 481.46C1159.39 476.013 1155.37 471.857 1150.21 468.99C1145.05 466.123 1139.25 464.69 1132.8 464.69C1126.2 464.69 1120.33 466.123 1115.17 468.99C1110.15 471.857 1106.14 476.013 1103.13 481.46C1100.12 486.763 1098.61 493.142 1098.61 500.595C1098.61 507.905 1100.12 514.283 1103.13 519.73C1106.14 525.177 1110.15 529.333 1115.17 532.2C1120.33 535.067 1126.13 536.5 1132.58 536.5ZM1261.7 559.505C1251.95 559.505 1243.35 557.713 1235.9 554.13C1228.44 550.403 1222.64 544.813 1218.48 537.36C1214.32 529.763 1212.25 520.232 1212.25 508.765V443.19H1239.12V505.11C1239.12 515.43 1241.41 523.17 1246 528.33C1250.73 533.347 1257.4 535.855 1266 535.855C1272.3 535.855 1277.75 534.565 1282.34 531.985C1287.07 529.405 1290.72 525.535 1293.3 520.375C1296.02 515.215 1297.39 508.837 1297.39 501.24V443.19H1324.26V558H1298.68V527.04L1303.19 536.5C1299.32 543.953 1293.66 549.687 1286.21 553.7C1278.75 557.57 1270.58 559.505 1261.7 559.505ZM1418.14 441.9C1427.32 441.9 1435.49 443.692 1442.65 447.275C1449.96 450.858 1455.7 456.377 1459.85 463.83C1464.01 471.14 1466.09 480.6 1466.09 492.21V558H1439.21V495.65C1439.21 485.473 1436.78 477.877 1431.9 472.86C1427.17 467.843 1420.51 465.335 1411.91 465.335C1405.6 465.335 1400.01 466.625 1395.14 469.205C1390.27 471.785 1386.47 475.655 1383.74 480.815C1381.16 485.832 1379.87 492.21 1379.87 499.95V558H1353V443.19H1378.58V474.15L1374.07 464.69C1378.08 457.38 1383.89 451.79 1391.48 447.92C1399.22 443.907 1408.11 441.9 1418.14 441.9ZM1536.95 559.505C1524.33 559.505 1514.59 556.28 1507.71 549.83C1500.83 543.237 1497.39 533.562 1497.39 520.805V417.82H1524.26V520.16C1524.26 525.607 1525.62 529.835 1528.35 532.845C1531.21 535.855 1535.15 537.36 1540.17 537.36C1546.19 537.36 1551.21 535.783 1555.22 532.63L1562.75 551.765C1559.59 554.345 1555.72 556.28 1551.14 557.57C1546.55 558.86 1541.82 559.505 1536.95 559.505ZM1478.47 465.55V444.05H1555.01V465.55H1478.47ZM1580.98 558V407.5H1608.93V558H1580.98ZM1705.76 441.9C1714.93 441.9 1723.1 443.692 1730.27 447.275C1737.58 450.858 1743.31 456.377 1747.47 463.83C1751.62 471.14 1753.7 480.6 1753.7 492.21V558H1726.83V495.65C1726.83 485.473 1724.39 477.877 1719.52 472.86C1714.79 467.843 1708.12 465.335 1699.52 465.335C1693.22 465.335 1687.63 466.625 1682.75 469.205C1677.88 471.785 1674.08 475.655 1671.36 480.815C1668.78 485.832 1667.49 492.21 1667.49 499.95V558H1640.61V443.19H1666.2V474.15L1661.68 464.69C1665.7 457.38 1671.5 451.79 1679.1 447.92C1686.84 443.907 1695.72 441.9 1705.76 441.9Z" fill="#576490"/>
<path d="M937.012 667.394H971.932V675.639H937.012V667.394ZM937.885 697.561H977.461V706H928.185V638.1H976.103V646.539H937.885V697.561ZM1019.26 654.105C1023.46 654.105 1027.15 654.913 1030.32 656.53C1033.55 658.147 1036.07 660.604 1037.88 663.902C1039.7 667.2 1040.6 671.371 1040.6 676.415V706H1031.29V677.482C1031.29 672.503 1030.06 668.752 1027.6 666.23C1025.21 663.708 1021.81 662.447 1017.42 662.447C1014.12 662.447 1011.24 663.094 1008.78 664.387C1006.33 665.68 1004.42 667.588 1003.06 670.11C1001.77 672.632 1001.12 675.768 1001.12 679.519V706H991.809V654.59H1000.73V668.461L999.278 664.775C1000.96 661.412 1003.55 658.793 1007.04 656.918C1010.53 655.043 1014.6 654.105 1019.26 654.105ZM1075.49 706.582C1070.31 706.582 1066.31 705.192 1063.46 702.411C1060.61 699.63 1059.19 695.653 1059.19 690.48V643.338H1068.5V690.092C1068.5 692.873 1069.18 695.007 1070.54 696.494C1071.96 697.981 1073.97 698.725 1076.55 698.725C1079.46 698.725 1081.89 697.917 1083.83 696.3L1086.74 702.993C1085.32 704.222 1083.6 705.127 1081.6 705.709C1079.66 706.291 1077.62 706.582 1075.49 706.582ZM1050.46 662.253V654.59H1083.25V662.253H1050.46ZM1098 706V654.59H1106.92V668.558L1106.05 665.066C1107.47 661.509 1109.86 658.793 1113.23 656.918C1116.59 655.043 1120.73 654.105 1125.64 654.105V663.126C1125.25 663.061 1124.87 663.029 1124.48 663.029C1124.16 663.029 1123.83 663.029 1123.51 663.029C1118.53 663.029 1114.58 664.516 1111.67 667.491C1108.76 670.466 1107.31 674.766 1107.31 680.392V706H1098ZM1141.43 725.4C1138.98 725.4 1136.58 724.98 1134.26 724.139C1131.93 723.363 1129.92 722.199 1128.24 720.647L1132.22 713.663C1133.51 714.892 1134.94 715.829 1136.49 716.476C1138.04 717.123 1139.69 717.446 1141.43 717.446C1143.7 717.446 1145.57 716.864 1147.06 715.7C1148.55 714.536 1149.94 712.467 1151.23 709.492L1154.43 702.411L1155.4 701.247L1175.58 654.59H1184.7L1159.77 711.141C1158.28 714.762 1156.6 717.608 1154.72 719.677C1152.91 721.746 1150.91 723.201 1148.71 724.042C1146.51 724.947 1144.09 725.4 1141.43 725.4ZM1153.66 707.649L1130.18 654.59H1139.88L1159.86 700.374L1153.66 707.649ZM1220.8 706V638.1H1228.75L1259.21 689.413H1254.94L1285.01 638.1H1292.96L1293.06 706H1283.75L1283.65 652.747H1285.88L1259.11 697.755H1254.65L1227.68 652.747H1230.11V706H1220.8ZM1343.99 706V695.136L1343.51 693.099V674.572C1343.51 670.627 1342.34 667.588 1340.02 665.454C1337.75 663.255 1334.33 662.156 1329.73 662.156C1326.69 662.156 1323.72 662.673 1320.81 663.708C1317.9 664.678 1315.44 666.004 1313.44 667.685L1309.56 660.701C1312.21 658.567 1315.38 656.95 1319.06 655.851C1322.81 654.687 1326.73 654.105 1330.8 654.105C1337.85 654.105 1343.28 655.819 1347.1 659.246C1350.91 662.673 1352.82 667.911 1352.82 674.96V706H1343.99ZM1327.11 706.582C1323.3 706.582 1319.94 705.935 1317.03 704.642C1314.18 703.349 1311.98 701.57 1310.43 699.307C1308.88 696.979 1308.1 694.36 1308.1 691.45C1308.1 688.669 1308.75 686.147 1310.04 683.884C1311.4 681.621 1313.57 679.81 1316.54 678.452C1319.58 677.094 1323.66 676.415 1328.76 676.415H1345.06V683.108H1329.15C1324.5 683.108 1321.36 683.884 1319.74 685.436C1318.13 686.988 1317.32 688.863 1317.32 691.062C1317.32 693.584 1318.32 695.621 1320.32 697.173C1322.33 698.66 1325.11 699.404 1328.67 699.404C1332.16 699.404 1335.2 698.628 1337.78 697.076C1340.44 695.524 1342.34 693.261 1343.51 690.286L1345.35 696.688C1344.12 699.727 1341.96 702.152 1338.85 703.963C1335.75 705.709 1331.84 706.582 1327.11 706.582ZM1391.3 706.582C1386.32 706.582 1381.85 705.483 1377.91 703.284C1374.03 701.085 1370.96 698.014 1368.69 694.069C1366.43 690.124 1365.3 685.533 1365.3 680.295C1365.3 675.057 1366.43 670.498 1368.69 666.618C1370.96 662.673 1374.03 659.602 1377.91 657.403C1381.85 655.204 1386.32 654.105 1391.3 654.105C1395.63 654.105 1399.54 655.075 1403.03 657.015C1406.52 658.955 1409.31 661.865 1411.37 665.745C1413.51 669.625 1414.58 674.475 1414.58 680.295C1414.58 686.115 1413.54 690.965 1411.47 694.845C1409.47 698.725 1406.72 701.667 1403.23 703.672C1399.73 705.612 1395.76 706.582 1391.3 706.582ZM1392.07 698.434C1395.3 698.434 1398.21 697.69 1400.8 696.203C1403.45 694.716 1405.52 692.614 1407.01 689.898C1408.56 687.117 1409.34 683.916 1409.34 680.295C1409.34 676.609 1408.56 673.44 1407.01 670.789C1405.52 668.073 1403.45 665.971 1400.8 664.484C1398.21 662.997 1395.3 662.253 1392.07 662.253C1388.77 662.253 1385.83 662.997 1383.24 664.484C1380.66 665.971 1378.59 668.073 1377.04 670.789C1375.48 673.44 1374.71 676.609 1374.71 680.295C1374.71 683.916 1375.48 687.117 1377.04 689.898C1378.59 692.614 1380.66 694.716 1383.24 696.203C1385.83 697.69 1388.77 698.434 1392.07 698.434ZM1409.63 706V692.129L1410.21 680.198L1409.24 668.267V634.026H1418.55V706H1409.63ZM1459.06 706.582C1453.57 706.582 1448.72 705.45 1444.51 703.187C1440.38 700.924 1437.14 697.82 1434.81 693.875C1432.55 689.93 1431.42 685.404 1431.42 680.295C1431.42 675.186 1432.52 670.66 1434.72 666.715C1436.98 662.77 1440.05 659.699 1443.93 657.5C1447.88 655.237 1452.31 654.105 1457.22 654.105C1462.2 654.105 1466.6 655.204 1470.41 657.403C1474.23 659.602 1477.2 662.706 1479.34 666.715C1481.54 670.66 1482.63 675.283 1482.63 680.586C1482.63 680.974 1482.6 681.427 1482.54 681.944C1482.54 682.461 1482.51 682.946 1482.44 683.399H1438.69V676.706H1477.59L1473.81 679.034C1473.87 675.736 1473.19 672.794 1471.77 670.207C1470.35 667.62 1468.38 665.616 1465.85 664.193C1463.4 662.706 1460.52 661.962 1457.22 661.962C1453.99 661.962 1451.11 662.706 1448.59 664.193C1446.07 665.616 1444.09 667.653 1442.67 670.304C1441.25 672.891 1440.54 675.865 1440.54 679.228V680.78C1440.54 684.207 1441.31 687.279 1442.86 689.995C1444.48 692.646 1446.71 694.716 1449.56 696.203C1452.4 697.69 1455.67 698.434 1459.35 698.434C1462.39 698.434 1465.14 697.917 1467.6 696.882C1470.12 695.847 1472.32 694.295 1474.2 692.226L1479.34 698.24C1477.01 700.956 1474.1 703.025 1470.61 704.448C1467.18 705.871 1463.33 706.582 1459.06 706.582ZM1531.8 667.394H1566.72V675.639H1531.8V667.394ZM1532.67 697.561H1572.25V706H1522.97V638.1H1570.89V646.539H1532.67V697.561ZM1617.85 706V695.136L1617.36 693.099V674.572C1617.36 670.627 1616.2 667.588 1613.87 665.454C1611.61 663.255 1608.18 662.156 1603.59 662.156C1600.55 662.156 1597.57 662.673 1594.66 663.708C1591.75 664.678 1589.3 666.004 1587.29 667.685L1583.41 660.701C1586.06 658.567 1589.23 656.95 1592.92 655.851C1596.67 654.687 1600.58 654.105 1604.66 654.105C1611.7 654.105 1617.14 655.819 1620.95 659.246C1624.77 662.673 1626.67 667.911 1626.67 674.96V706H1617.85ZM1600.97 706.582C1597.15 706.582 1593.79 705.935 1590.88 704.642C1588.04 703.349 1585.84 701.57 1584.29 699.307C1582.73 696.979 1581.96 694.36 1581.96 691.45C1581.96 688.669 1582.6 686.147 1583.9 683.884C1585.26 681.621 1587.42 679.81 1590.4 678.452C1593.44 677.094 1597.51 676.415 1602.62 676.415H1618.91V683.108H1603.01C1598.35 683.108 1595.21 683.884 1593.6 685.436C1591.98 686.988 1591.17 688.863 1591.17 691.062C1591.17 693.584 1592.17 695.621 1594.18 697.173C1596.18 698.66 1598.96 699.404 1602.52 699.404C1606.01 699.404 1609.05 698.628 1611.64 697.076C1614.29 695.524 1616.2 693.261 1617.36 690.286L1619.21 696.688C1617.98 699.727 1615.81 702.152 1612.71 703.963C1609.6 705.709 1605.69 706.582 1600.97 706.582ZM1658.65 706.582C1654.38 706.582 1650.31 706 1646.43 704.836C1642.61 703.672 1639.61 702.249 1637.41 700.568L1641.29 693.196C1643.49 694.683 1646.2 695.944 1649.44 696.979C1652.67 698.014 1655.97 698.531 1659.33 698.531C1663.66 698.531 1666.77 697.917 1668.64 696.688C1670.58 695.459 1671.55 693.746 1671.55 691.547C1671.55 689.93 1670.97 688.669 1669.81 687.764C1668.64 686.859 1667.09 686.18 1665.15 685.727C1663.27 685.274 1661.17 684.886 1658.85 684.563C1656.52 684.175 1654.19 683.722 1651.86 683.205C1649.53 682.623 1647.4 681.847 1645.46 680.877C1643.52 679.842 1641.97 678.452 1640.8 676.706C1639.64 674.895 1639.06 672.503 1639.06 669.528C1639.06 666.424 1639.93 663.708 1641.68 661.38C1643.42 659.052 1645.88 657.274 1649.05 656.045C1652.28 654.752 1656.1 654.105 1660.49 654.105C1663.86 654.105 1667.25 654.525 1670.68 655.366C1674.17 656.142 1677.02 657.274 1679.22 658.761L1675.24 666.133C1672.91 664.581 1670.49 663.514 1667.96 662.932C1665.44 662.35 1662.92 662.059 1660.4 662.059C1656.32 662.059 1653.28 662.738 1651.28 664.096C1649.27 665.389 1648.27 667.071 1648.27 669.14C1648.27 670.886 1648.85 672.244 1650.02 673.214C1651.25 674.119 1652.8 674.831 1654.67 675.348C1656.61 675.865 1658.75 676.318 1661.08 676.706C1663.4 677.029 1665.73 677.482 1668.06 678.064C1670.39 678.581 1672.49 679.325 1674.37 680.295C1676.31 681.265 1677.86 682.623 1679.02 684.369C1680.25 686.115 1680.86 688.443 1680.86 691.353C1680.86 694.457 1679.96 697.141 1678.15 699.404C1676.34 701.667 1673.78 703.446 1670.49 704.739C1667.19 705.968 1663.24 706.582 1658.65 706.582ZM1693.79 725.4C1691.33 725.4 1688.94 724.98 1686.61 724.139C1684.28 723.363 1682.27 722.199 1680.59 720.647L1684.57 713.663C1685.86 714.892 1687.29 715.829 1688.84 716.476C1690.39 717.123 1692.04 717.446 1693.79 717.446C1696.05 717.446 1697.92 716.864 1699.41 715.7C1700.9 714.536 1702.29 712.467 1703.58 709.492L1706.78 702.411L1707.75 701.247L1727.93 654.59H1737.05L1712.12 711.141C1710.63 714.762 1708.95 717.608 1707.07 719.677C1705.26 721.746 1703.26 723.201 1701.06 724.042C1698.86 724.947 1696.44 725.4 1693.79 725.4ZM1706.01 707.649L1682.53 654.59H1692.23L1712.22 700.374L1706.01 707.649ZM1746.22 684.563L1744.48 638.1H1755.44L1753.6 684.563H1746.22ZM1750.01 706.582C1748.2 706.582 1746.68 705.968 1745.45 704.739C1744.22 703.51 1743.6 702.055 1743.6 700.374C1743.6 698.563 1744.22 697.076 1745.45 695.912C1746.68 694.748 1748.2 694.166 1750.01 694.166C1751.82 694.166 1753.3 694.748 1754.47 695.912C1755.63 697.076 1756.21 698.563 1756.21 700.374C1756.21 702.055 1755.63 703.51 1754.47 704.739C1753.3 705.968 1751.82 706.582 1750.01 706.582Z" fill="#576490"/>
</svg>
