<svg width="2549" height="1080" viewBox="0 0 2549 1080" fill="none" xmlns="http://www.w3.org/2000/svg">
<path d="M431.612 544.236C478.25 522.885 472.964 458.011 423.639 446.4C391.636 438.865 361.046 462.695 360.915 495.259C360.765 532.416 399.231 559.061 431.612 544.236Z" fill="#03CEA4"/>
<path d="M301.101 577.784C324.466 557.788 319.279 521.137 291.376 509.091C263.747 497.156 235.01 516.302 235.01 546.64C235.01 581.184 275.073 600.065 301.101 577.784Z" fill="#03CEA4"/>
<path d="M577.043 576.8C600.427 556.219 594.015 518.935 565.333 508.716C548.16 502.596 531.536 506 520.483 517.895C485.31 555.756 538.281 610.921 577.043 576.8Z" fill="#03CEA4"/>
<path d="M441.587 563.92C422.658 574.325 402.986 574.357 382.488 564.015C369.739 557.583 369.66 557.579 357.97 562.604C328.668 575.203 308.384 598.061 300.92 626.908L298.619 635.787L411.976 635.787L525.334 635.787L525.334 631.225C525.334 609.727 503.389 581.358 475.893 567.304C456.459 557.373 453.949 557.124 441.587 563.92Z" fill="#03CEA4"/>
<path d="M655.825 630.11C646.23 621.492 625.578 608.454 613.097 603.133C606.871 600.48 598.19 597.072 593.813 595.562L585.847 592.815L582.491 596.385C577.644 601.548 562.072 608.086 552.204 609.106C545.219 609.826 543.879 610.423 544.677 612.463C545.211 613.823 547.121 619.63 548.919 625.362L552.193 635.787L607.096 635.724L662 635.657L655.825 630.11Z" fill="#03CEA4"/>
<path d="M276.16 609.533C266.514 609.533 255.259 605.734 246.534 599.531C237.275 592.949 237.504 592.949 220.92 599.263C203.771 605.79 186.922 615.475 173.042 626.786L162 635.787L217.75 635.787L273.499 635.787L275.172 629.581C276.089 626.169 278.176 620.259 279.809 616.456L282.774 609.533L276.16 609.533Z" fill="#03CEA4"/>
<path d="M727.959 484.288L731.612 512.038L732.833 540L731.612 567.962L727.959 595.712L721.901 623.038L713.485 649.731L702.774 675.59L689.85 700.417L674.811 724.022L657.773 746.228L638.863 766.863L618.228 785.773L596.022 802.811L572.417 817.85L547.59 830.774L521.731 841.485L495.038 849.901L467.712 855.959L439.962 859.612L412 860.833L384.038 859.612L356.288 855.959L328.962 849.901L302.269 841.485L276.41 830.774L251.583 817.85L227.978 802.811L205.772 785.773L185.137 766.863L166.227 746.228L149.189 724.022L134.15 700.417L121.226 675.59L110.515 649.731L102.099 623.038L96.0409 595.712L92.3876 567.962L91.1667 540L92.3876 512.038L96.0409 484.288L102.099 456.962L110.515 430.269L121.226 404.41L134.15 379.583L149.189 355.978L166.227 333.772L185.137 313.137L205.772 294.227L227.978 277.189L251.583 262.15L276.41 249.226L302.269 238.515L328.962 230.099L356.288 224.041" stroke="#03CEA4" stroke-width="50" stroke-linecap="round"/>
<path d="M467.712 224.041L495.038 230.099L521.731 238.515L547.59 249.226L572.417 262.15L596.022 277.189L618.228 294.227L638.863 313.137L657.773 333.772L674.811 355.978L689.85 379.583" stroke="#F61067" stroke-width="50" stroke-linecap="round"/>
<text x="999.232" y="696.24" font-family="'Inter', 'Segoe UI', -apple-system, BlinkMacSystemFont, sans-serif" font-size="320" font-weight="600" fill="#2D3748" letter-spacing="-0.02em">CountIn</text>
</svg>
